# xmcd
#
# Track frame offsets:
#	150
#	10088
#	25085
#	47045
#	70024
#	90920
#	111116
#	133396
#	158449
#	177208
#	203157
#	220444
#	247449
#	270236
#	283875
#	304864
#	320752
#	321570
#
# Disc length: 4530 seconds
#
# Revision: 0
# Processed by: cddbd v1.5.1PL2 Copyright (c) Steve Scherf et al.
# Submitted via: dBpowerAMP V4.0
#
DISCID=0911b012
DTITLE=Trae - Restless
DYEAR=2006
DGENRE=Houston Rap
TTITLE0=Intro
TTITLE1=Real Talk
TTITLE2=In The Hood ft. Yung Joc and Big Pokey
TTITLE3=Screw Done Already Warned Me ft. Lil' Keke
TTITLE4=So Gangsta ft. Bun B
TTITLE5=Restless ft. Young Noble of the Outlaws
TTITLE6=The Rain ft. Dallas and Shyna
TTITLE7=Dedicated To You
TTITLE8=The Truth ft. Billy Cook
TTITLE9=Swang ft. Pimp C, Hawk (RIP), and Fat Pat (RIP)
TTITLE10=Quit Calling Me
TTITLE11=Cadillac ft. Paul Wall, Three 6 Mafia, Jayton and Lil' Boss
TTITLE12=No Help ft. Z-Ro
TTITLE13=Song Cry
TTITLE14=Matter of Time ft. Mya
TTITLE15=Coming Around The Corner ft. Jim Jones
TTITLE16=Who Da Truth Is
TTITLE17=Pop Trunk Wave ft. Fat Pat
EXTD=
EXTT0=
EXTT1=
EXTT2=
EXTT3=
EXTT4=
EXTT5=
EXTT6=
EXTT7=
EXTT8=
EXTT9=
EXTT10=
EXTT11=
EXTT12=
EXTT13=
EXTT14=
EXTT15=
EXTT16=
EXTT17=
PLAYORDER=
